<?xml version="1.0" encoding="UTF-8"?>
<svg xmlns="http://www.w3.org/2000/svg" xmlns:xlink="http://www.w3.org/1999/xlink" version="1.1" id="Layer_1" x="0px" y="0px" width="574.195389" viewBox="226.628525 233.827835 574.195389 583.630112" enable-background="new 0 0 1024 1024" xml:space="preserve" height="583.630112">
<path fill="#000000" opacity="1.000000" stroke="none" d=" M267.454834,795.586670   C246.861740,779.180237 235.817368,757.989868 232.510254,732.365540   C231.628525,725.533630 231.678925,718.761047 231.676422,711.958313   C231.636719,603.477722 231.642548,494.997101 231.651321,386.516479   C231.654419,348.205414 260.925995,312.997711 298.482605,305.594543   C309.392365,303.444031 320.311493,303.754913 331.276398,303.614288   C334.775787,303.569427 335.323578,305.334259 335.385742,308.275574   C335.592865,318.072998 334.531342,327.915863 336.366425,337.660248   C340.068970,357.320831 350.267303,371.893585 369.806702,378.193115   C389.272003,384.468781 406.855225,380.305481 421.016144,365.452728   C429.609924,356.439056 434.214233,345.131256 434.623993,332.475861   C434.871948,324.817474 434.859894,317.146820 434.785034,309.483398   C434.745087,305.393372 436.081543,303.561066 440.584473,303.572784   C489.075470,303.698944 537.567017,303.692657 586.058044,303.574127   C590.255554,303.563873 591.453186,304.998657 591.425354,309.057648   C591.343384,321.005920 590.905151,332.916870 594.126465,344.738556   C599.459106,364.308624 618.698242,383.391998 647.408081,380.513672   C667.391785,378.510223 684.814392,363.035156 689.657959,340.202911   C690.984680,333.948944 690.707825,327.634216 690.966980,321.325775   C691.197266,315.721954 688.597351,308.711700 692.417480,304.898682   C696.013367,301.309448 702.899048,303.735382 708.316895,303.717102   C722.132629,303.670441 735.495483,306.303772 747.844360,312.604004   C773.921814,325.908295 789.464233,347.075470 794.436951,376.017944   C795.263550,380.829041 795.345764,385.606293 795.345886,390.425842   C795.349243,500.739471 795.823914,611.056335 795.069153,721.364807   C794.830811,756.192810 779.514160,784.219116 748.605347,802.332825   C736.196838,809.604736 722.422424,812.182190 708.354736,812.201355   C576.711853,812.380554 445.068481,812.457947 313.425842,812.227173   C296.579590,812.197693 281.168030,806.286560 267.454834,795.586670  M542.803406,628.477844   C564.445862,635.558411 586.429504,641.356506 608.880371,645.164185   C622.531982,647.479553 635.912720,651.654907 650.171143,649.827759   C681.866760,645.766174 704.852600,629.118652 718.346313,600.807190   C731.795776,572.588623 734.901306,542.097351 731.368835,511.230408   C729.318054,493.309631 717.324341,479.958221 699.344299,477.051178   C690.819031,475.672699 682.323914,475.980804 674.062256,477.665924   C636.992310,485.226959 600.007629,493.205597 562.986450,501.006409   C544.312317,504.941315 525.785828,509.673431 506.373993,508.461823   C494.030823,507.691406 482.126434,504.850891 470.115845,502.361633   C437.653351,495.633606 405.181335,488.951324 372.703278,482.298828   C359.229980,479.539124 345.903931,475.581909 331.931335,476.408691   C317.275208,477.275879 305.825653,483.281006 299.009949,496.968750   C294.610199,505.804718 292.664368,515.174316 292.427856,524.855164   C292.078186,539.167725 293.829712,553.343201 296.348145,567.422668   C301.310486,595.165161 313.351624,618.597229 336.790619,635.454285   C351.889008,646.312866 369.057129,652.077576 386.967773,650.128357   C414.131256,647.172241 441.116547,641.790649 467.187286,633.186279   C491.810608,625.059509 516.499023,621.096497 542.803406,628.477844  z"/>
<path fill="#000000" opacity="1.000000" stroke="none" d=" M383.098450,239.642395   C400.967316,239.657028 411.457703,246.543930 415.663483,260.858032   C416.691742,264.357727 417.336975,267.963531 417.335938,271.653046   C417.330353,291.475861 417.411804,311.299042 417.321198,331.121399   C417.261475,344.191010 408.559113,356.845978 396.961823,361.135345   C383.683899,366.046356 369.720734,362.739166 360.460907,352.589905   C355.983826,347.682800 353.732330,341.870880 353.699829,335.350555   C353.588562,313.029602 353.511658,290.706482 353.705109,268.386658   C353.847717,251.934662 366.234344,239.840179 383.098450,239.642395  z"/>
<path fill="#000000" opacity="1.000000" stroke="none" d=" M656.975159,242.778442   C668.518494,248.969818 672.936035,259.134552 673.185852,271.050476   C673.608459,291.208191 673.526917,311.383667 673.258484,331.546326   C673.066406,345.968964 662.374146,359.180542 649.105225,362.324432   C634.205994,365.854553 620.054993,360.022675 613.165894,347.454437   C610.892212,343.306396 609.675476,338.823273 609.668579,334.086456   C609.637146,312.586731 609.453125,291.084442 609.716919,269.587891   C609.946594,250.867401 624.173950,238.827835 640.160767,239.552368   C645.855713,239.810455 651.481262,239.720322 656.975159,242.778442  z"/>
<path fill="#000000" opacity="1.000000" stroke="none" d=" M645.434204,555.270630   C642.526733,557.285217 644.381653,559.307983 644.936523,561.229248   C649.061584,575.512512 648.666687,589.478455 641.662170,602.830261   C635.029663,615.472778 623.768005,620.502991 610.203125,619.777954   C590.387390,618.718811 580.893494,610.524719 575.742554,591.291321   C574.842224,587.929321 573.412109,586.664368 570.117554,588.135498   C563.809570,590.952026 556.851318,586.505371 554.653381,581.717163   C551.998535,575.933594 553.233276,569.159729 558.718262,565.313477   C567.474060,559.173645 577.365112,555.109863 587.116150,550.839111   C610.719482,540.501282 634.080078,529.630554 658.153320,520.341980   C668.722961,516.263733 678.523193,523.905518 677.318298,533.551514   C676.623169,539.116943 673.149292,542.348877 668.331848,544.563354   C660.780273,548.034668 653.260559,551.575500 645.434204,555.270630  z"/>
<path fill="#000000" opacity="1.000000" stroke="none" d=" M363.931488,547.221313   C360.884338,545.788940 358.104950,544.640381 355.503540,543.175781   C349.046814,539.540588 346.913025,532.836792 349.903351,526.073608   C352.490173,520.223022 359.227142,517.420654 365.843689,519.901245   C399.015198,532.337402 431.253357,546.920410 462.957184,562.685242   C470.679688,566.525269 473.551971,571.401794 472.662537,577.308411   C471.357635,585.973938 464.293488,590.511230 456.051910,588.002136   C454.959991,587.669739 453.824860,587.479309 452.718842,587.225220   C451.120331,588.872253 450.848297,590.878296 450.379028,592.765320   C445.885742,610.832275 432.883667,620.524841 414.302490,619.620789   C393.349091,618.601318 379.721252,604.254028 379.669708,583.046814   C379.650391,575.101685 378.836578,567.051697 382.188080,559.452393   C383.347290,556.823914 381.948029,555.390320 379.718323,554.378479   C374.570831,552.042603 369.426086,549.700806 363.931488,547.221313  z"/>
</svg>